<?xml version="1.0" encoding="utf-8"?>
<!-- Generator: Adobe Illustrator 22.0.0, SVG Export Plug-In . SVG Version: 6.00 Build 0)  -->
<svg version="1.1" id="Layer_1" xmlns="http://www.w3.org/2000/svg" xmlns:xlink="http://www.w3.org/1999/xlink" x="0px" y="0px"
	 viewBox="0 0 299.4 86.7" style="enable-background:new 0 0 299.4 86.7;" xml:space="preserve">
<style type="text/css">
	.st0{fill:#FFFFFF;}
	.st1{fill-rule:evenodd;clip-rule:evenodd;fill:#C2DA34;}
	.st2{fill:#4D8750;}
	.st3{fill:#C2DA34;}
</style>
<g id="XMLID_13_">
	<g>
		<g id="XMLID_185_">
			<g>
				<path class="st0" d="M11,21.8h16c1,0,2,0,3,0.1c1,0,1.5,0.1,1.5,0.1c6,0,10.5,1.4,13.5,4.1c3.1,2.7,4.6,6.7,4.6,12
					c0,3.1-0.7,5.9-2,8.3c-1.3,2.4-3.2,4.3-5.6,5.7c-1.4,0.8-3,1.4-4.9,1.7c-1.9,0.3-5.1,0.5-9.7,0.5h-8.9V78H11V21.8z M18.7,28.7
					v18.9h10.2c4.8,0,8.2-0.7,10.1-2.2c1.9-1.5,2.9-3.9,2.9-7.3c0-3.3-1-5.7-2.9-7.2c-1.9-1.5-5.1-2.2-9.5-2.2H18.7z"/>
			</g>
		</g>
		<g id="XMLID_183_">
			<g>
				<path class="st0" d="M57.2,21.8h7V78h-7V21.8z"/>
			</g>
		</g>
		<g id="XMLID_180_">
			<g>
				<path class="st0" d="M106.6,48.5c0,0,0,25.3,0,26.2s0.8,3.3,0.8,3.3c-2,0-7.2,0-7.2,0s0-3.4,0-5.5c-2.2,2.3-4.5,4-6.9,5.1
					c-2.5,1.1-5.1,1.7-8,1.7c-4.2,0-7.6-1.1-9.9-3.2c-2.4-2.2-3.6-5.2-3.6-9c0-4,1.3-7.1,3.8-9.1c2.5-2,6.7-3.4,12.6-4
					c0.8-0.1,1.9-0.2,3.2-0.3c5.6-0.6,8.4-2.4,8.4-5.4c0-2.1-0.8-3.7-2.4-4.8c-1.6-1.1-4-1.6-7.2-1.6c-3.3,0-5.8,0.6-7.4,1.9
					c-1.7,1.3-2.5,3.2-2.5,5.6h-6.5V49c0-4,1.5-7.3,4.5-9.6c3-2.4,7-3.6,12.2-3.6c5.6,0,9.7,1,12.4,3.1
					C105.3,40.9,106.6,44.1,106.6,48.5z M99.7,57.2c-2,1-5.2,1.8-9.8,2.4c-1.6,0.2-2.8,0.3-3.7,0.5c-2.7,0.5-4.6,1.2-5.7,2.3
					c-1.1,1.1-1.7,2.6-1.7,4.6c0,2,0.7,3.5,2,4.7c1.3,1.1,3.2,1.7,5.6,1.7c3.8,0,7-0.9,9.5-2.8c2.5-1.9,3.7-4.2,3.7-7.1V57.2z"/>
			</g>
		</g>
		<g id="XMLID_178_">
			<g>
				<path class="st0" d="M147.4,53.5V78h-7V50.5c0-2.7-0.7-4.8-2-6.2c-1.3-1.4-3.3-2.1-5.8-2.1c-3.7,0-6.6,1.1-8.6,3.3
					c-2,2.2-3.1,5.3-3.1,9.3V78h-6.9V37.1h6.6v5.7c1.5-2.2,3.3-3.9,5.4-5c2.1-1.1,4.5-1.6,7.2-1.6c3,0,5.5,0.5,7.6,1.4
					c2.1,0.9,3.7,2.3,4.8,4.1c0.6,1,1,2.1,1.3,3.4c0.3,1.3,0.4,3.2,0.4,5.6V53.5z"/>
			</g>
		</g>
		<g id="XMLID_176_">
			<g>
				<path class="st0" d="M158,25.7h6.9v11.4h7.2v5.5h-7.2v25.1c0,1.9,0.2,3.1,0.7,3.7c0.5,0.6,1.3,0.9,2.6,0.9c0.6,0,1.2,0,1.8-0.1
					c0.6,0,1.3-0.1,2.1-0.2v5.9c-1.2,0.2-2.2,0.4-3.2,0.5c-1,0.1-1.9,0.2-2.7,0.2c-3,0-5-0.6-6.3-1.9c-1.2-1.3-1.9-3.5-1.9-6.6V42.6
					h-6v-5.5h6V25.7z"/>
			</g>
		</g>
		<g id="XMLID_175_">
			<rect x="179.6" y="37.1" class="st0" width="6.9" height="40.9"/>
		</g>
		<g id="XMLID_173_">
			<g>
				<path class="st0" d="M194,37.1h6.9v25.1c0,4.1,0.6,6.9,1.8,8.4c1.2,1.5,3.2,2.3,6.1,2.3c3.8,0,6.7-1.2,8.6-3.5
					c1.9-2.3,2.9-5.7,2.9-10.3v-22h7V78h-6.7v-5.8c-1.3,2.2-3,3.8-5.2,5c-2.2,1.2-4.6,1.8-7.4,1.8c-3,0-5.6-0.5-7.7-1.4
					c-2.1-0.9-3.7-2.3-4.8-4.1c-0.6-1-1-2.1-1.3-3.4c-0.3-1.3-0.4-3.4-0.4-6.4v-2V37.1z"/>
			</g>
		</g>
		<g id="XMLID_171_">
			<g>
				<path class="st0" d="M264.6,42.4c1.7-2.1,3.5-3.7,5.5-4.7c2-1,4.3-1.5,6.9-1.5c2.7,0,5,0.5,6.9,1.4c1.9,0.9,3.4,2.3,4.4,4.1
					c0.6,1,1,2.1,1.2,3.4c0.2,1.3,0.4,3.1,0.4,5.5v2.9V78h-6.8V52.9v-2.4c0-2.7-0.6-4.8-1.8-6.2c-1.2-1.4-3-2.1-5.4-2.1
					c-3.2,0-5.6,2.5-7.4,4.6c-1.8,2-2.6,5.7-2.6,9.3V78H259V50.5c0-2.8-0.6-4.8-1.8-6.2c-1.2-1.4-3-2.1-5.3-2.1
					c-3.2,0-5.6,2.5-7.4,4.6c-1.8,2.1-2.7,5.7-2.7,9.3V78H235V37.1h6.6v5.5c1.5-2.2,3.2-3.9,5.2-5c2-1.1,4.3-1.6,7-1.6
					c2.5,0,4.6,0.5,6.3,1.5C261.8,38.6,263.3,40.2,264.6,42.4z"/>
			</g>
		</g>
		<path id="XMLID_170_" class="st1" d="M278.1,27.3c5.3-0.1,9.6-4.4,9.6-9.6c0-5.2-4.4-9.5-9.8-9.5c-5.4,0-9.7,4.3-9.7,9.6
			C268.2,23.1,272.6,27.3,278.1,27.3L278.1,27.3L278.1,27.3z"/>
		<g id="XMLID_167_">
			<path id="XMLID_169_" class="st2" d="M179.6,9v5.3c3.9,0,7.1,3,7.1,6.8c0,3.7-3,6.9-6.9,6.9v0c5.3-0.1,9.6-4.4,9.6-9.6
				C189.4,13.2,185,8.9,179.6,9z"/>
			<path id="XMLID_168_" class="st3" d="M186.7,21.1c0-3.8-3.2-6.9-7.1-6.8c0,0,0,0,0,0V19c2.5,0,4.6,2,4.7,4.5c0,2.4-2,4.5-4.5,4.5
				v0c0,0,0.1,0,0.1,0C183.7,28,186.8,24.8,186.7,21.1z"/>
		</g>
		<path id="XMLID_166_" class="st1" d="M206.2,27.8c5.3-0.1,9.6-4.4,9.6-9.6c0-5.3-4.4-9.5-9.8-9.5c-5.4,0-9.7,4.3-9.7,9.6
			C196.3,23.6,200.7,27.8,206.2,27.8L206.2,27.8L206.2,27.8z"/>
		<path id="XMLID_165_" class="st1" d="M230.1,27.6c5.3-0.1,9.6-4.4,9.6-9.6c0-5.2-4.4-9.5-9.8-9.4c-5.4,0-9.7,4.3-9.7,9.6
			C220.3,23.4,224.7,27.7,230.1,27.6L230.1,27.6L230.1,27.6z"/>
		<path id="XMLID_164_" class="st1" d="M254.1,27.5c5.3-0.1,9.6-4.4,9.6-9.6c0-5.2-4.4-9.5-9.8-9.5c-5.4,0-9.7,4.3-9.7,9.6
			C244.2,23.2,248.6,27.5,254.1,27.5L254.1,27.5L254.1,27.5z"/>
	</g>
</g>
</svg>
